# xmcd
#
# Track frame offsets:
#	150
#	20696
#	58055
#	67904
#	86426
#	130001
#	151146
#	174592
#	193386
#	213591
#	228564
#	248942
#	274683
#	297308
#	315084
#
# Disc length: 4438 seconds
#
# Revision: 0
# Processed by: cddbd v1.5.2PL0 Copyright (c) Steve Scherf et al.
# Submitted via: EasyCDDAExtractor 16.0.8.2
#
DISCID=d411540f
DTITLE=Άνευ ερμηνευτού - Jazz collection 12-Buddy Rich
DYEAR=2010
DGENRE=Ξένη jazz
TTITLE0=Yellow rose of Brooklyn
TTITLE1=Easy does it
TTITLE2=All sweets
TTITLE3=Nice work if you can get it
TTITLE4=Barny' s bugle
TTITLE5=Now' s the time
TTITLE6=You' re getting to be a habit with me
TTITLE7=Sing sing sing
TTITLE8=The casbah
TTITLE9=Sleep
TTITLE10=Figure eights
TTITLE11=Yesterdays
TTITLE12=Big foot
TTITLE13=Limehouse blues
TTITLE14=Toot, toot, tootsie goodbye
EXTD=
EXTT0=
EXTT1=
EXTT2=
EXTT3=
EXTT4=
EXTT5=
EXTT6=
EXTT7=
EXTT8=
EXTT9=
EXTT10=
EXTT11=
EXTT12=
EXTT13=
EXTT14=
PLAYORDER=
